<svg width="26" height="26" viewBox="0 0 26 26" fill="none" xmlns="http://www.w3.org/2000/svg">
<circle cx="13" cy="13" r="13" fill="currentColor" fill-opacity="0.22"/>
<path d="M20.7783 11.2068C20.7086 11.1413 20.6257 11.0893 20.5344 11.0538C20.443 11.0183 20.345 11 20.2461 11C20.1471 11 20.0492 11.0183 19.9578 11.0538C19.8665 11.0893 19.7836 11.1413 19.7139 11.2068L14.9991 15.6117L11.7835 12.6052C11.7138 12.5397 11.6309 12.4876 11.5396 12.4522C11.4482 12.4167 11.3503 12.3984 11.2513 12.3984C11.1524 12.3984 11.0544 12.4167 10.963 12.4522C10.8717 12.4876 10.7888 12.5397 10.7191 12.6052L6.22172 16.8003C6.15146 16.8653 6.0957 16.9427 6.05765 17.0279C6.01959 17.1131 6 17.2045 6 17.2968C6 17.3891 6.01959 17.4804 6.05765 17.5656C6.0957 17.6509 6.15146 17.7282 6.22172 17.7932C6.2914 17.8587 6.3743 17.9107 6.46565 17.9462C6.55699 17.9817 6.65496 18 6.75391 18C6.85286 18 6.95084 17.9817 7.04218 17.9462C7.13352 17.9107 7.21642 17.8587 7.2861 17.7932L11.2513 14.0875L14.4669 17.094C14.5366 17.1595 14.6195 17.2115 14.7109 17.247C14.8022 17.2825 14.9002 17.3008 14.9991 17.3008C15.0981 17.3008 15.1961 17.2825 15.2874 17.247C15.3787 17.2115 15.4616 17.1595 15.5313 17.094L20.7783 12.1997C20.8485 12.1347 20.9043 12.0573 20.9424 11.9721C20.9804 11.8869 21 11.7955 21 11.7032C21 11.6109 20.9804 11.5196 20.9424 11.4344C20.9043 11.3491 20.8485 11.2718 20.7783 11.2068Z" fill="currentColor"/>
</svg>
